<?xml version="1.0" encoding="utf-8"?>
<!-- Generator: Adobe Illustrator 23.0.4, SVG Export Plug-In . SVG Version: 6.00 Build 0)  -->
<svg version="1.1" id="Layer_1" xmlns="http://www.w3.org/2000/svg" xmlns:xlink="http://www.w3.org/1999/xlink" x="0px" y="0px"
	 viewBox="0 0 21 20" style="enable-background:new 0 0 21 20;" xml:space="preserve">
<style type="text/css">
	.st0{fill:#505863;}
</style>
<path class="st0" d="M2.8,4.7C1.5,4.8,0.4,3.8,0.3,2.5S1.1,0.1,2.4,0c0.1,0,0.3,0,0.4,0c1.3-0.1,2.4,0.8,2.6,2.1
	c0.1,1.3-0.8,2.4-2.1,2.6C3.1,4.7,3,4.7,2.8,4.7L2.8,4.7z M5,6.8V20H0.7V6.8H5z M11.8,12.3c-0.1-1.3,0.8-2.4,2.1-2.5
	c0.1,0,0.2,0,0.3,0c1.3,0,2.3,0.9,2.3,3V20h4.3v-7.7c0-3.8-2.1-6-5.1-6c-1.6,0-3,0.9-3.8,2.2l-0.2-1.8H7.4c0,0.4,0.1,3,0.1,3V20h4.3
	L11.8,12.3L11.8,12.3z"/>
</svg>
