<?xml version="1.0" encoding="utf-8"?>
<!-- Generator: Adobe Illustrator 24.2.3, SVG Export Plug-In . SVG Version: 6.00 Build 0)  -->
<svg version="1.1" id="Layer_1" xmlns="http://www.w3.org/2000/svg" xmlns:xlink="http://www.w3.org/1999/xlink" x="0px" y="0px"
	 viewBox="0 0 313.9 137.9" style="enable-background:new 0 0 313.9 137.9;" xml:space="preserve">
<path d="M44.5,31.9h54.2V46H60.2v14.6h34v14.1h-34v15.1h39.1v14.1H44.5V31.9z M133.7,75.5L106,31.9h18.5l17.2,28.9l17.5-28.9h18
	l-27.7,43.3v28.7h-15.8V75.5z M184.7,31.9h29.4c4.3,0,8.2,0.6,11.6,1.8c3.4,1.2,6.3,2.9,8.6,5.1c2.4,2.2,4.2,4.8,5.5,7.9
	c1.3,3.1,1.9,6.4,1.9,10.1V57c0,4.2-0.8,7.9-2.3,11c-1.5,3.2-3.6,5.8-6.2,7.9c-2.6,2.1-5.7,3.7-9.3,4.8c-3.5,1.1-7.3,1.6-11.4,1.6
	h-12v21.6h-15.8V31.9z M213.1,68.2c4,0,7.1-1,9.3-3.1c2.2-2.1,3.3-4.7,3.3-7.8v-0.2c0-3.6-1.1-6.3-3.4-8.1c-2.3-1.9-5.4-2.8-9.4-2.8
	h-12.2v22H213.1z M305.6,0H8.2C3.7,0,0,3.7,0,8.2v121.5c0,4.5,3.7,8.2,8.2,8.2l237,0c3.1,0,6-1.8,7.3-4.5L313,11.9
	C315.7,6.4,311.7,0,305.6,0L305.6,0z M299.1,14.7L245,123.5c-0.9,1.8-3.2,3.2-5.2,3.2l-225,0c-2,0-3.6-1.6-3.6-3.6V14.7
	c0-2,1.6-3.6,3.6-3.6h282.2c1.3,0,2.4,1.1,2.4,2.5C299.4,14,299.3,14.4,299.1,14.7L299.1,14.7z"/>
</svg>
