<?xml version="1.0" encoding="utf-8"?>
<!-- Generator: Adobe Illustrator 24.0.1, SVG Export Plug-In . SVG Version: 6.00 Build 0)  -->
<svg version="1.1" id="Layer_1" xmlns="http://www.w3.org/2000/svg" xmlns:xlink="http://www.w3.org/1999/xlink" x="0px" y="0px"
	 viewBox="0 0 792 612" style="enable-background:new 0 0 792 612;" xml:space="preserve">
<style type="text/css">
	.st0{fill:#BCBEC0;}
</style>
<g>
	<path class="st0" d="M448.6,348l-28.8-28.8c4.5-6.8,7-15,7-23.7c0-24-19.5-43.5-43.5-43.5c-24,0-43.5,19.5-43.5,43.5
		s19.5,43.5,43.5,43.5c10.5,0,20.2-3.7,27.7-10l28.2,28.2c1.3,1.3,3,1.9,4.7,1.9s3.4-0.6,4.7-1.9C451.2,354.8,451.2,350.6,448.6,348
		z M353.1,295.5c0-16.7,13.6-30.3,30.3-30.3c16.7,0,30.3,13.6,30.3,30.3c0,7.5-2.8,14.4-7.3,19.7c-0.2,0.2-0.3,0.4-0.5,0.6
		c-5.6,6.2-13.6,10.1-22.5,10.1C366.7,325.9,353.1,312.2,353.1,295.5z"/>
	<path class="st0" d="M373.9,279c-1,0.6-1.3,1.8-0.8,2.8c0.6,1,1.8,1.3,2.8,0.8c7.1-4.1,16.2-1.7,20.3,5.4c0.4,0.7,1.1,1,1.8,1
		c0.4,0,0.7-0.1,1-0.3c1-0.6,1.3-1.8,0.8-2.8C394.6,276.9,383,273.8,373.9,279z"/>
</g>
</svg>
